<svg xmlns="http://www.w3.org/2000/svg" width="49.134" height="57.388" viewBox="0 0 36.85 43.041" version="1.2">
  <path style="stroke:none;fill-rule:nonzero;fill:#303c42;fill-opacity:1" d="m28.383 24.883.172.101c.226.133.53.04.68-.21l.535-.907c.148-.25.09-.562-.137-.695l-.406-.242c-.016-.008-.032-.008-.047-.016a.887.887 0 0 0-.41-.105c-1.45.011-3.063.757-4.926 1.617-.23.105-.461.21-.696.32-.433-3.121-1.496-6.308-4.84-8.293-4.886-2.898-10.39-.332-11.058.793-.668 1.129-.285 7.188 4.605 10.09 3.34 1.98 6.649 1.387 9.598.273.016.254.035.508.05.758.138 2.051.259 3.82.942 5.102a.878.878 0 0 0 .325.34l.406.242c.226.133.531.039.68-.211l.535-.906c.148-.25.086-.563-.137-.696l-.172-.101c-.414-.942-.52-2.477-.629-4.102a73.993 73.993 0 0 0-.09-1.226c.383-.172.754-.344 1.121-.512 1.477-.684 2.875-1.324 3.899-1.414Zm-15.453.637c-3.64-2.16-4.035-6.102-3.98-7.266.991-.602 4.64-2.149 8.284.012 2.809 1.668 3.668 4.445 4.024 7.293-2.668 1.05-5.516 1.628-8.328-.04Zm0 0"/>
  <path style="fill:none;stroke-width:3.77953;stroke-linecap:butt;stroke-linejoin:miter;stroke:#303c42;stroke-opacity:1;stroke-miterlimit:4" d="M344.621 213.748c0 12.52-10.15 22.677-22.677 22.677-12.526 0-22.677-10.157-22.677-22.677 0-12.526 10.151-22.678 22.677-22.678s22.677 10.152 22.677 22.678Zm0 0" transform="matrix(.75 0 0 .75 -223.032 -135.693)"/>
  <path style="fill-rule:nonzero;fill:#303c42;fill-opacity:1;stroke-width:1.32283;stroke-linecap:butt;stroke-linejoin:miter;stroke:#303c42;stroke-opacity:1;stroke-miterlimit:4" d="M316.257 181.586h11.375v5.026h-11.375Zm0 0" transform="matrix(.75 0 0 .75 -223.032 -135.693)"/>
  <path style="fill-rule:nonzero;fill:#303c42;fill-opacity:1;stroke-width:.776054;stroke-linecap:butt;stroke-linejoin:miter;stroke:#303c42;stroke-opacity:1;stroke-miterlimit:4" d="m-90.77-384.1 6.674-.001-.002 2.95-6.67-.003Zm0 0" transform="rotate(132.098 -81.378 -117.383) scale(.75)"/>
</svg>
