<?xml version="1.0" encoding="UTF-8" standalone="no"?>
<!-- Created with Inkscape (http://www.inkscape.org/) -->

<svg
   width="210mm"
   height="297mm"
   viewBox="0 0 793.70081 1122.5197"
   version="1.1"
   id="svg5"
   inkscape:version="1.1.1 (c3084ef, 2021-09-22)"
   sodipodi:docname="fish_timer.svg"
   xmlns:inkscape="http://www.inkscape.org/namespaces/inkscape"
   xmlns:sodipodi="http://sodipodi.sourceforge.net/DTD/sodipodi-0.dtd"
   xmlns="http://www.w3.org/2000/svg"
   xmlns:svg="http://www.w3.org/2000/svg">
  <sodipodi:namedview
     id="namedview7"
     pagecolor="#ffffff"
     bordercolor="#111111"
     borderopacity="1"
     inkscape:pageshadow="0"
     inkscape:pageopacity="0"
     inkscape:pagecheckerboard="1"
     inkscape:document-units="mm"
     showgrid="false"
     inkscape:snap-center="true"
     inkscape:snap-object-midpoints="true"
     showguides="true"
     inkscape:guide-bbox="true"
     inkscape:snap-midpoints="true"
     inkscape:zoom="5.8167997"
     inkscape:cx="327.41371"
     inkscape:cy="211.6284"
     inkscape:window-width="1440"
     inkscape:window-height="784"
     inkscape:window-x="0"
     inkscape:window-y="25"
     inkscape:window-maximized="1"
     inkscape:current-layer="layer1">
    <sodipodi:guide
       position="321.94338,908.77362"
       orientation="0,-1"
       id="guide3599" />
    <sodipodi:guide
       position="321.94337,908.77364"
       orientation="1,0"
       id="guide3601" />
  </sodipodi:namedview>
  <defs
     id="defs2" />
  <g
     inkscape:label="Layer 1"
     inkscape:groupmode="layer"
     id="layer1">
    <g
       id="g163"
       transform="matrix(1.0867617,0.64476547,-0.71724996,1.2089353,315.65103,189.41415)"
       style="stroke-width:3.21569;stroke-miterlimit:4;stroke-dasharray:none">
      <path
         d="M 23.287964,8 H 23.5 C 23.776367,8 24,7.7763672 24,7.5 v -1 C 24,6.2236328 23.776367,6 23.5,6 H 23 C 22.98279,6 22.96826,6.00806 22.95148,6.00977 22.805667,6.01667 22.659793,6.047307 22.522464,6.1210981 21.210938,6.833496 20.150391,8.2202148 18.920899,9.8261718 18.770508,10.022949 18.618164,10.22168 18.464844,10.421387 16.389648,8.0849609 13.708008,6 9.6083984,6 3.609375,6 0,10.757813 0,12 c 0,1.242188 3.609375,6 9.6083984,6 4.0996096,0 6.7812496,-2.084961 8.8564456,-4.421387 0.15332,0.199707 0.305664,0.398438 0.456054,0.595215 1.229493,1.605957 2.29004,2.992676 3.601563,3.705078 C 22.674805,17.960937 22.837891,18 22.999023,18 c 0,0 4.28e-4,-6.1e-5 6.11e-4,-6.1e-5 L 23,18 h 0.5 c 0.276367,0 0.5,-0.223633 0.5,-0.5 v -1 C 24,16.223633 23.776367,16 23.5,16 H 23.287964 C 22.407105,15.430725 21.483765,14.231811 20.509766,12.958496 20.269531,12.64502 20.024414,12.324219 19.770508,12 20.024414,11.675781 20.269531,11.354981 20.509766,11.041504 21.483765,9.7681885 22.407104,8.5692749 23.287964,8 Z M 9.6083984,16 c -4.46875,0 -6.9482422,-3.026367 -7.5244141,-4 0.5761719,-0.973633 3.0556641,-4 7.5244141,-4 3.4472656,0 5.7216796,1.8515625 7.5790916,4 -1.857412,2.148438 -4.131826,4 -7.5790916,4 z"
         fill="#303c42"
         id="path110"
         style="stroke-width:3.21569;stroke-miterlimit:4;stroke-dasharray:none" />
      <g
         id="g112"
         style="stroke-width:3.21569;stroke-miterlimit:4;stroke-dasharray:none" />
      <g
         id="g114"
         style="stroke-width:3.21569;stroke-miterlimit:4;stroke-dasharray:none" />
      <g
         id="g116"
         style="stroke-width:3.21569;stroke-miterlimit:4;stroke-dasharray:none" />
      <g
         id="g118"
         style="stroke-width:3.21569;stroke-miterlimit:4;stroke-dasharray:none" />
      <g
         id="g120"
         style="stroke-width:3.21569;stroke-miterlimit:4;stroke-dasharray:none" />
      <g
         id="g122"
         style="stroke-width:3.21569;stroke-miterlimit:4;stroke-dasharray:none" />
      <g
         id="g124"
         style="stroke-width:3.21569;stroke-miterlimit:4;stroke-dasharray:none" />
      <g
         id="g126"
         style="stroke-width:3.21569;stroke-miterlimit:4;stroke-dasharray:none" />
      <g
         id="g128"
         style="stroke-width:3.21569;stroke-miterlimit:4;stroke-dasharray:none" />
      <g
         id="g130"
         style="stroke-width:3.21569;stroke-miterlimit:4;stroke-dasharray:none" />
      <g
         id="g132"
         style="stroke-width:3.21569;stroke-miterlimit:4;stroke-dasharray:none" />
      <g
         id="g134"
         style="stroke-width:3.21569;stroke-miterlimit:4;stroke-dasharray:none" />
      <g
         id="g136"
         style="stroke-width:3.21569;stroke-miterlimit:4;stroke-dasharray:none" />
      <g
         id="g138"
         style="stroke-width:3.21569;stroke-miterlimit:4;stroke-dasharray:none" />
      <g
         id="g140"
         style="stroke-width:3.21569;stroke-miterlimit:4;stroke-dasharray:none" />
    </g>
    <circle
       style="fill:none;fill-opacity:1;fill-rule:evenodd;stroke:#303c42;stroke-width:3.77953;stroke-miterlimit:4;stroke-dasharray:none;stroke-opacity:1"
       id="circle3350"
       cx="321.94336"
       cy="213.74609"
       r="22.677166" />
    <rect
       style="fill:#303c42;fill-opacity:1;stroke:#303c42;stroke-width:1.32283;stroke-miterlimit:4;stroke-dasharray:none;stroke-opacity:1"
       id="rect3625"
       width="11.376378"
       height="5.026772"
       x="316.25519"
       y="181.58604" />
    <rect
       style="fill:#303c42;fill-opacity:1;stroke:#303c42;stroke-width:0.776054;stroke-miterlimit:4;stroke-dasharray:none;stroke-opacity:1"
       id="rect3625-0"
       width="6.6740794"
       height="2.949012"
       x="-90.771553"
       y="-384.10318"
       transform="rotate(132.09784)"
       inkscape:transform-center-x="-20.583523"
       inkscape:transform-center-y="-22.108855" />
  </g>
</svg>
