<svg viewBox="0 0 330 200" xmlns="http://www.w3.org/2000/svg"><g><g><g><g><g><line x1="60.28000354766846" y1="164.08333333333334" x2="55.28000354766846" y2="164.08333333333334" style="visibility: inherit;" fill="rgb(0, 0, 0)" stroke="rgb(204, 204, 204)" stroke-width="1px"></line><line x1="60.28000354766846" y1="149.16666666666669" x2="55.28000354766846" y2="149.16666666666669" style="visibility: inherit;" fill="rgb(0, 0, 0)" stroke="rgb(204, 204, 204)" stroke-width="1px"></line><line x1="60.28000354766846" y1="134.25" x2="55.28000354766846" y2="134.25" style="visibility: inherit;" fill="rgb(0, 0, 0)" stroke="rgb(204, 204, 204)" stroke-width="1px"></line><line x1="60.28000354766846" y1="119.33333333333334" x2="55.28000354766846" y2="119.33333333333334" style="visibility: inherit;" fill="rgb(0, 0, 0)" stroke="rgb(204, 204, 204)" stroke-width="1px"></line><line x1="60.28000354766846" y1="104.4166666666667" x2="55.28000354766846" y2="104.4166666666667" style="visibility: inherit;" fill="rgb(0, 0, 0)" stroke="rgb(204, 204, 204)" stroke-width="1px"></line><line x1="60.28000354766846" y1="89.5" x2="55.28000354766846" y2="89.5" style="visibility: inherit;" fill="rgb(0, 0, 0)" stroke="rgb(204, 204, 204)" stroke-width="1px"></line><line x1="60.28000354766846" y1="74.58333333333333" x2="55.28000354766846" y2="74.58333333333333" style="visibility: inherit;" fill="rgb(0, 0, 0)" stroke="rgb(204, 204, 204)" stroke-width="1px"></line><line x1="60.28000354766846" y1="59.66666666666667" x2="55.28000354766846" y2="59.66666666666667" style="visibility: inherit;" fill="rgb(0, 0, 0)" stroke="rgb(204, 204, 204)" stroke-width="1px"></line><line x1="60.28000354766846" y1="44.75" x2="55.28000354766846" y2="44.75" style="visibility: inherit;" fill="rgb(0, 0, 0)" stroke="rgb(204, 204, 204)" stroke-width="1px"></line><line x1="60.28000354766846" y1="29.833333333333325" x2="55.28000354766846" y2="29.833333333333325" style="visibility: inherit;" fill="rgb(0, 0, 0)" stroke="rgb(204, 204, 204)" stroke-width="1px"></line><line x1="60.28000354766846" y1="14.916666666666673" x2="55.28000354766846" y2="14.916666666666673" style="visibility: inherit;" fill="rgb(0, 0, 0)" stroke="rgb(204, 204, 204)" stroke-width="1px"></line><line x1="60.28000354766846" y1="0" x2="55.28000354766846" y2="0" style="visibility: inherit;" fill="rgb(0, 0, 0)" stroke="rgb(204, 204, 204)" stroke-width="1px"></line></g><g transform="translate(50.28000354766846, 0)"><text style="text-anchor: end; visibility: inherit; font-family: Roboto, sans-serif; font-size: 12px; font-weight: 200;" x="0" y="164.08333333333334" dx="0em" dy="0.3em" fill="rgb(255, 255, 255)" stroke="none" stroke-width="1px">0.04</text><text style="text-anchor: end; visibility: hidden; font-family: Roboto, sans-serif; font-size: 12px; font-weight: 200;" x="0" y="149.16666666666669" dx="0em" dy="0.3em" fill="rgb(255, 255, 255)" stroke="none" stroke-width="1px">0.045</text><text style="text-anchor: end; visibility: inherit; font-family: Roboto, sans-serif; font-size: 12px; font-weight: 200;" x="0" y="134.25" dx="0em" dy="0.3em" fill="rgb(255, 255, 255)" stroke="none" stroke-width="1px">0.05</text><text style="text-anchor: end; visibility: hidden; font-family: Roboto, sans-serif; font-size: 12px; font-weight: 200;" x="0" y="119.33333333333334" dx="0em" dy="0.3em" fill="rgb(255, 255, 255)" stroke="none" stroke-width="1px">0.055</text><text style="text-anchor: end; visibility: inherit; font-family: Roboto, sans-serif; font-size: 12px; font-weight: 200;" x="0" y="104.4166666666667" dx="0em" dy="0.3em" fill="rgb(255, 255, 255)" stroke="none" stroke-width="1px">0.06</text><text style="text-anchor: end; visibility: hidden; font-family: Roboto, sans-serif; font-size: 12px; font-weight: 200;" x="0" y="89.5" dx="0em" dy="0.3em" fill="rgb(255, 255, 255)" stroke="none" stroke-width="1px">0.065</text><text style="text-anchor: end; visibility: inherit; font-family: Roboto, sans-serif; font-size: 12px; font-weight: 200;" x="0" y="74.58333333333333" dx="0em" dy="0.3em" fill="rgb(255, 255, 255)" stroke="none" stroke-width="1px">0.07</text><text style="text-anchor: end; visibility: hidden; font-family: Roboto, sans-serif; font-size: 12px; font-weight: 200;" x="0" y="59.66666666666667" dx="0em" dy="0.3em" fill="rgb(255, 255, 255)" stroke="none" stroke-width="1px">0.075</text><text style="text-anchor: end; visibility: inherit; font-family: Roboto, sans-serif; font-size: 12px; font-weight: 200;" x="0" y="44.75" dx="0em" dy="0.3em" fill="rgb(255, 255, 255)" stroke="none" stroke-width="1px">0.08</text><text style="text-anchor: end; visibility: hidden; font-family: Roboto, sans-serif; font-size: 12px; font-weight: 200;" x="0" y="29.833333333333325" dx="0em" dy="0.3em" fill="rgb(255, 255, 255)" stroke="none" stroke-width="1px">0.085</text><text style="text-anchor: end; visibility: inherit; font-family: Roboto, sans-serif; font-size: 12px; font-weight: 200;" x="0" y="14.916666666666673" dx="0em" dy="0.3em" fill="rgb(255, 255, 255)" stroke="none" stroke-width="1px">0.09</text><text style="text-anchor: end; visibility: hidden; font-family: Roboto, sans-serif; font-size: 12px; font-weight: 200;" x="0" y="0" dx="0em" dy="0.3em" fill="rgb(255, 255, 255)" stroke="none" stroke-width="1px">0.095</text></g><line x1="60.28000354766846" y1="0" x2="60.28000354766846" y2="179" fill="rgb(0, 0, 0)" stroke="rgb(204, 204, 204)" stroke-width="1px"></line></g></g><g transform="translate(60, 0)" clip-path="url(#clip_0)"><clipPath id="clip_0"><rect width="269" height="179"></rect></clipPath><g><g><g><line x1="0" y1="0" x2="0" y2="179" fill="rgb(0, 0, 0)" stroke="rgb(189, 189, 189)" stroke-width="1px" opacity="0.25"></line><line x1="26.971999645233154" y1="0" x2="26.971999645233154" y2="179" fill="rgb(0, 0, 0)" stroke="rgb(189, 189, 189)" stroke-width="1px" opacity="0.25"></line><line x1="53.94399929046631" y1="0" x2="53.94399929046631" y2="179" fill="rgb(0, 0, 0)" stroke="rgb(189, 189, 189)" stroke-width="1px" opacity="0.25"></line><line x1="80.91599893569946" y1="0" x2="80.91599893569946" y2="179" fill="rgb(0, 0, 0)" stroke="rgb(189, 189, 189)" stroke-width="1px" opacity="0.25"></line><line x1="107.88799858093262" y1="0" x2="107.88799858093262" y2="179" fill="rgb(0, 0, 0)" stroke="rgb(189, 189, 189)" stroke-width="1px" opacity="0.25"></line><line x1="134.85999822616577" y1="0" x2="134.85999822616577" y2="179" fill="rgb(0, 0, 0)" stroke="rgb(189, 189, 189)" stroke-width="1px" opacity="0.25"></line><line x1="161.83199787139893" y1="0" x2="161.83199787139893" y2="179" fill="rgb(0, 0, 0)" stroke="rgb(189, 189, 189)" stroke-width="1px" opacity="0.25"></line><line x1="188.80399751663208" y1="0" x2="188.80399751663208" y2="179" fill="rgb(0, 0, 0)" stroke="rgb(189, 189, 189)" stroke-width="1px" opacity="0.25"></line><line x1="215.77599716186523" y1="0" x2="215.77599716186523" y2="179" fill="rgb(0, 0, 0)" stroke="rgb(189, 189, 189)" stroke-width="1px" opacity="0.25"></line><line x1="242.7479968070984" y1="0" x2="242.7479968070984" y2="179" fill="rgb(0, 0, 0)" stroke="rgb(189, 189, 189)" stroke-width="1px" opacity="0.25"></line><line x1="269.71999645233154" y1="0" x2="269.71999645233154" y2="179" fill="rgb(0, 0, 0)" stroke="rgb(189, 189, 189)" stroke-width="1px" opacity="0.25"></line></g><g><line x1="0" y1="164.08333333333334" x2="269.71999645233154" y2="164.08333333333334" fill="rgb(0, 0, 0)" stroke="rgb(189, 189, 189)" stroke-width="1px" opacity="0.25"></line><line x1="0" y1="149.16666666666669" x2="269.71999645233154" y2="149.16666666666669" fill="rgb(0, 0, 0)" stroke="rgb(189, 189, 189)" stroke-width="1px" opacity="0.25"></line><line x1="0" y1="134.25" x2="269.71999645233154" y2="134.25" fill="rgb(0, 0, 0)" stroke="rgb(189, 189, 189)" stroke-width="1px" opacity="0.25"></line><line x1="0" y1="119.33333333333334" x2="269.71999645233154" y2="119.33333333333334" fill="rgb(0, 0, 0)" stroke="rgb(189, 189, 189)" stroke-width="1px" opacity="0.25"></line><line x1="0" y1="104.4166666666667" x2="269.71999645233154" y2="104.4166666666667" fill="rgb(0, 0, 0)" stroke="rgb(189, 189, 189)" stroke-width="1px" opacity="0.25"></line><line x1="0" y1="89.5" x2="269.71999645233154" y2="89.5" fill="rgb(0, 0, 0)" stroke="rgb(189, 189, 189)" stroke-width="1px" opacity="0.25"></line><line x1="0" y1="74.58333333333333" x2="269.71999645233154" y2="74.58333333333333" fill="rgb(0, 0, 0)" stroke="rgb(189, 189, 189)" stroke-width="1px" opacity="0.25"></line><line x1="0" y1="59.66666666666667" x2="269.71999645233154" y2="59.66666666666667" fill="rgb(0, 0, 0)" stroke="rgb(189, 189, 189)" stroke-width="1px" opacity="0.25"></line><line x1="0" y1="44.75" x2="269.71999645233154" y2="44.75" fill="rgb(0, 0, 0)" stroke="rgb(189, 189, 189)" stroke-width="1px" opacity="0.25"></line><line x1="0" y1="29.833333333333325" x2="269.71999645233154" y2="29.833333333333325" fill="rgb(0, 0, 0)" stroke="rgb(189, 189, 189)" stroke-width="1px" opacity="0.25"></line><line x1="0" y1="14.916666666666673" x2="269.71999645233154" y2="14.916666666666673" fill="rgb(0, 0, 0)" stroke="rgb(189, 189, 189)" stroke-width="1px" opacity="0.25"></line><line x1="0" y1="0" x2="269.71999645233154" y2="0" fill="rgb(0, 0, 0)" stroke="rgb(189, 189, 189)" stroke-width="1px" opacity="0.25"></line></g></g></g><g><g><line x1="0" y1="283.4166666666667" x2="269.71999645233154" y2="283.4166666666667" fill="rgb(0, 0, 0)" stroke="rgb(153, 153, 153)" stroke-width="1.5px"></line></g></g><g><g><line x1="26.971999645233154" y1="0" x2="26.971999645233154" y2="179" fill="rgb(0, 0, 0)" stroke="rgb(153, 153, 153)" stroke-width="1.5px"></line></g></g><g><g><g><g><g><path style="fill: none;" stroke="rgb(0, 119, 187)" stroke-width="2px" d="M32.36639957427978,-5.7178348851244465L35.0635995388031,12.780084794734178L37.76079950332642,30.694220256207725L40.45799946784973,46.64735254755117L43.155199432373045,59.11967786898015L45.85239939689637,69.98074174658228L48.54959936141967,74.17092441128028L51.246799325942995,79.56643729856735L53.94399929046631,83.5608651219792L56.64119925498962,90.085545352175L59.33839921951294,93.51492867507584L62.03559918403626,96.01180472999667L64.73279914855956,98.00508352360407L67.42999911308289,100.28924630291101L70.1271990776062,102.90802519642308L72.82439904212953,103.1270709957466L75.52159900665283,103.9400051405604L78.21879897117614,107.26107414382366L80.91599893569946,109.52872777210773L83.61319890022278,112.35739812330245L86.31039886474609,114.33937165987471L89.00759882926941,115.4044931337633L91.70479879379273,118.15340040761681L94.40199875831604,120.56740044453461L97.09919872283935,121.47442269313174L99.79639868736267,122.45835030889425L102.49359865188599,121.84551903962698L105.19079861640931,122.75966662326685L107.88799858093262,124.61519385746435L110.58519854545592,126.83046835830162L113.28239850997925,128.3670783786823L115.97959847450257,128.82307453958438L118.67679843902587,130.86731567623664L121.3739984035492,132.84556548833308L124.07119836807252,133.2050097688794L126.76839833259582,134.2849774393661L129.46559829711913,134.8351789784703L132.16279826164245,135.13240754975513L134.85999822616577,135.66360729403365L137.5571981906891,137.0705887451609L140.2543981552124,135.64158672399822L142.95159811973573,137.42533596670242L145.64879808425906,138.5038452754483L148.34599804878235,139.86595829495732L151.04319801330567,139.7207147310259L153.74039797782896,140.91968220256965L156.43759794235228,142.1221477018948L159.1347979068756,144.10229845905843L161.83199787139893,144.46516387302583L164.52919783592225,145.59201277577552L167.22639780044557,147.3026463595083L169.92359776496886,147.91856784067917L172.62079772949218,147.70581630632688L175.3179976940155,148.78545560299642L178.01519765853882,150.8297837815247L180.71239762306215,150.8990847115653L183.40959758758547,151.74213348795604L186.10679755210876,153.26745671611812L188.80399751663208,153.0340189809508L191.50119748115537,154.01454571534637L194.1983974456787,155.22831877459754L196.89559741020201,154.98284631405076L199.59279737472534,155.22029532254024L202.28999733924866,155.98266040937273L204.98719730377198,156.53746731672388L207.6843972682953,157.3813765273116L210.38159723281862,158.48098022097085L213.07879719734194,158.96746078245084L215.77599716186523,159.88632650342925L218.47319712638856,160.47653528452324L221.17039709091185,161.0460901174967L223.86759705543517,160.48676641468353L226.5647970199585,162.53927959710848L229.2619969844818,161.95146572019948L231.95919694900513,162.47963803068575L234.65639691352845,163.2607418937829L237.35359687805175,164.33404733796996L240.05079684257507,164.6361662023867" fill="none"></path></g><g><path style="fill: none;" fill="none" stroke="none" stroke-width="1px"></path></g></g></g></g><g opacity="0.2"><g><g><g><path style="fill: none;" stroke="rgb(0, 119, 187)" stroke-width="2px" d="M29.66919960975647,-9.424862061937663L32.36639957427978,13.823993335167573L35.0635995388031,34.53363833824794L37.76079950332642,54.082915514707565L40.45799946784973,68.7162776341041L43.155199432373045,76.95530263582866L45.85239939689637,85.81627714633942L48.54959936141967,80.350629940629L51.246799325942995,87.57814512153467L53.94399929046631,89.51627769072851L56.64119925498962,99.83705867578587L59.33839921951294,98.64780612786612L62.03559918403626,99.75222717225552L64.73279914855956,100.99265868961811L67.42999911308289,103.71387950330973L70.1271990776062,106.83508535722892L72.82439904212953,103.45558407902718L75.52159900665283,105.15928251544635L78.21879897117614,112.24237408985695L80.91599893569946,112.93008385101955L83.61319890022278,116.60031057149172L86.31039886474609,117.31229283412299L89.00759882926941,117.00216272721688L91.70479879379273,122.27674178034067L94.40199875831604,124.18839020530383L97.09919872283935,122.8349537452062L99.79639868736267,123.93424022197723L102.49359865188599,120.92627270023029L105.19079861640931,124.13088749349117L107.88799858093262,127.39848409344754L110.58519854545592,130.1533796687921L113.28239850997925,130.6719932258129L115.97959847450257,129.50706874827546L118.67679843902587,133.93367729336023L121.3739984035492,135.8129401554664L124.07119836807252,133.74417618413767L126.76839833259582,135.90492893507084L129.46559829711913,135.6604812840621L132.16279826164245,135.5782504056891L134.85999822616577,136.46040690938634L137.5571981906891,139.18106092015904L140.2543981552124,133.4980836932858L142.95159811973573,140.1009598299861L145.64879808425906,140.12160923828682L148.34599804878235,141.90912782400846L151.04319801330567,139.50284938514233L153.74039797782896,142.71813340981802L156.43759794235228,143.9258459508419L159.1347979068756,147.07252459476393L161.83199787139893,145.00946199397248L164.52919783592225,147.28228612989187L167.22639780044557,149.86859673509997L169.92359776496886,148.8424500624339L172.62079772949218,147.38668900479874L175.3179976940155,150.4049145479997L178.01519765853882,153.89627604931593L180.71239762306215,151.0030361066262L183.40959758758547,153.00670665254196L186.10679755210876,155.55544155836105L188.80399751663208,152.6838623781999L191.50119748115537,155.48533581693968L194.1983974456787,157.04897836347422L196.89559741020201,154.61463762323064L199.59279737472534,155.5764688352744L202.28999733924866,157.12620803962153L204.98719730377198,157.3696776777506L207.6843972682953,158.64724034319323L210.38159723281862,160.13038576145968L213.07879719734194,159.69718162467083L215.77599716186523,161.2646250848969L218.47319712638856,161.3618484561642L221.17039709091185,161.9004223669569L223.86759705543517,159.6477808604638L226.5647970199585,165.61804937074584L229.2619969844818,161.06974490483603L231.95919694900513,163.27189649641514L234.65639691352845,164.43239768842858L237.35359687805175,165.94400550425053L240.05079684257507,165.08934449901184" fill="none"></path></g><g><path style="fill: none;" fill="none" stroke="none" stroke-width="1px"></path></g></g></g></g></g></g><g transform="translate(60, 179)" clip-path="url(#clip_1)"><clipPath id="clip_1"><rect width="269" height="21"></rect></clipPath><g><g><line x1="0" y1="0" x2="0" y2="5" style="visibility: inherit;" fill="rgb(0, 0, 0)" stroke="rgb(204, 204, 204)" stroke-width="1px"></line><line x1="26.971999645233154" y1="0" x2="26.971999645233154" y2="5" style="visibility: inherit;" fill="rgb(0, 0, 0)" stroke="rgb(204, 204, 204)" stroke-width="1px"></line><line x1="53.94399929046631" y1="0" x2="53.94399929046631" y2="5" style="visibility: inherit;" fill="rgb(0, 0, 0)" stroke="rgb(204, 204, 204)" stroke-width="1px"></line><line x1="80.91599893569946" y1="0" x2="80.91599893569946" y2="5" style="visibility: inherit;" fill="rgb(0, 0, 0)" stroke="rgb(204, 204, 204)" stroke-width="1px"></line><line x1="107.88799858093262" y1="0" x2="107.88799858093262" y2="5" style="visibility: inherit;" fill="rgb(0, 0, 0)" stroke="rgb(204, 204, 204)" stroke-width="1px"></line><line x1="134.85999822616577" y1="0" x2="134.85999822616577" y2="5" style="visibility: inherit;" fill="rgb(0, 0, 0)" stroke="rgb(204, 204, 204)" stroke-width="1px"></line><line x1="161.83199787139893" y1="0" x2="161.83199787139893" y2="5" style="visibility: inherit;" fill="rgb(0, 0, 0)" stroke="rgb(204, 204, 204)" stroke-width="1px"></line><line x1="188.80399751663208" y1="0" x2="188.80399751663208" y2="5" style="visibility: inherit;" fill="rgb(0, 0, 0)" stroke="rgb(204, 204, 204)" stroke-width="1px"></line><line x1="215.77599716186523" y1="0" x2="215.77599716186523" y2="5" style="visibility: inherit;" fill="rgb(0, 0, 0)" stroke="rgb(204, 204, 204)" stroke-width="1px"></line><line x1="242.7479968070984" y1="0" x2="242.7479968070984" y2="5" style="visibility: inherit;" fill="rgb(0, 0, 0)" stroke="rgb(204, 204, 204)" stroke-width="1px"></line><line x1="269.71999645233154" y1="0" x2="269.71999645233154" y2="5" style="visibility: inherit;" fill="rgb(0, 0, 0)" stroke="rgb(204, 204, 204)" stroke-width="1px"></line></g><g transform="translate(0, 8)"><text style="text-anchor: middle; visibility: hidden; font-family: Roboto, sans-serif; font-size: 12px; font-weight: 200;" x="0" y="0" dx="0em" dy="0.95em" fill="rgb(255, 255, 255)" stroke="none" stroke-width="1px">-10</text><text style="text-anchor: middle; visibility: hidden; font-family: Roboto, sans-serif; font-size: 12px; font-weight: 200;" x="26.971999645233154" y="0" dx="0em" dy="0.95em" fill="rgb(255, 255, 255)" stroke="none" stroke-width="1px">0</text><text style="text-anchor: middle; visibility: hidden; font-family: Roboto, sans-serif; font-size: 12px; font-weight: 200;" x="53.94399929046631" y="0" dx="0em" dy="0.95em" fill="rgb(255, 255, 255)" stroke="none" stroke-width="1px">10</text><text style="text-anchor: middle; visibility: hidden; font-family: Roboto, sans-serif; font-size: 12px; font-weight: 200;" x="80.91599893569946" y="0" dx="0em" dy="0.95em" fill="rgb(255, 255, 255)" stroke="none" stroke-width="1px">20</text><text style="text-anchor: middle; visibility: hidden; font-family: Roboto, sans-serif; font-size: 12px; font-weight: 200;" x="107.88799858093262" y="0" dx="0em" dy="0.95em" fill="rgb(255, 255, 255)" stroke="none" stroke-width="1px">30</text><text style="text-anchor: middle; visibility: hidden; font-family: Roboto, sans-serif; font-size: 12px; font-weight: 200;" x="134.85999822616577" y="0" dx="0em" dy="0.95em" fill="rgb(255, 255, 255)" stroke="none" stroke-width="1px">40</text><text style="text-anchor: middle; visibility: hidden; font-family: Roboto, sans-serif; font-size: 12px; font-weight: 200;" x="161.83199787139893" y="0" dx="0em" dy="0.95em" fill="rgb(255, 255, 255)" stroke="none" stroke-width="1px">50</text><text style="text-anchor: middle; visibility: hidden; font-family: Roboto, sans-serif; font-size: 12px; font-weight: 200;" x="188.80399751663208" y="0" dx="0em" dy="0.95em" fill="rgb(255, 255, 255)" stroke="none" stroke-width="1px">60</text><text style="text-anchor: middle; visibility: hidden; font-family: Roboto, sans-serif; font-size: 12px; font-weight: 200;" x="215.77599716186523" y="0" dx="0em" dy="0.95em" fill="rgb(255, 255, 255)" stroke="none" stroke-width="1px">70</text><text style="text-anchor: middle; visibility: hidden; font-family: Roboto, sans-serif; font-size: 12px; font-weight: 200;" x="242.7479968070984" y="0" dx="0em" dy="0.95em" fill="rgb(255, 255, 255)" stroke="none" stroke-width="1px">80</text><text style="text-anchor: middle; visibility: hidden; font-family: Roboto, sans-serif; font-size: 12px; font-weight: 200;" x="269.71999645233154" y="0" dx="0em" dy="0.95em" fill="rgb(255, 255, 255)" stroke="none" stroke-width="1px">90</text></g><line x1="0" y1="0" x2="269.71999645233154" y2="0" fill="rgb(0, 0, 0)" stroke="rgb(204, 204, 204)" stroke-width="1px"></line></g></g></g></g></svg>