<svg viewBox="0 0 330 200" xmlns="http://www.w3.org/2000/svg"><g><g><g><g><g><line x1="60.28000354766846" y1="179" x2="55.28000354766846" y2="179" style="visibility: inherit;" fill="rgb(0, 0, 0)" stroke="rgb(204, 204, 204)" stroke-width="1px"></line><line x1="60.28000354766846" y1="159.11111111111111" x2="55.28000354766846" y2="159.11111111111111" style="visibility: inherit;" fill="rgb(0, 0, 0)" stroke="rgb(204, 204, 204)" stroke-width="1px"></line><line x1="60.28000354766846" y1="139.22222222222223" x2="55.28000354766846" y2="139.22222222222223" style="visibility: inherit;" fill="rgb(0, 0, 0)" stroke="rgb(204, 204, 204)" stroke-width="1px"></line><line x1="60.28000354766846" y1="119.33333333333334" x2="55.28000354766846" y2="119.33333333333334" style="visibility: inherit;" fill="rgb(0, 0, 0)" stroke="rgb(204, 204, 204)" stroke-width="1px"></line><line x1="60.28000354766846" y1="99.44444444444444" x2="55.28000354766846" y2="99.44444444444444" style="visibility: inherit;" fill="rgb(0, 0, 0)" stroke="rgb(204, 204, 204)" stroke-width="1px"></line><line x1="60.28000354766846" y1="79.55555555555557" x2="55.28000354766846" y2="79.55555555555557" style="visibility: inherit;" fill="rgb(0, 0, 0)" stroke="rgb(204, 204, 204)" stroke-width="1px"></line><line x1="60.28000354766846" y1="59.66666666666665" x2="55.28000354766846" y2="59.66666666666665" style="visibility: inherit;" fill="rgb(0, 0, 0)" stroke="rgb(204, 204, 204)" stroke-width="1px"></line><line x1="60.28000354766846" y1="39.77777777777778" x2="55.28000354766846" y2="39.77777777777778" style="visibility: inherit;" fill="rgb(0, 0, 0)" stroke="rgb(204, 204, 204)" stroke-width="1px"></line><line x1="60.28000354766846" y1="19.88888888888888" x2="55.28000354766846" y2="19.88888888888888" style="visibility: inherit;" fill="rgb(0, 0, 0)" stroke="rgb(204, 204, 204)" stroke-width="1px"></line><line x1="60.28000354766846" y1="0" x2="55.28000354766846" y2="0" style="visibility: inherit;" fill="rgb(0, 0, 0)" stroke="rgb(204, 204, 204)" stroke-width="1px"></line></g><g transform="translate(50.28000354766846, 0)"><text style="text-anchor: end; visibility: hidden; font-family: Roboto, sans-serif; font-size: 12px; font-weight: 200;" x="0" y="179" dx="0em" dy="0.3em" fill="rgb(255, 255, 255)" stroke="none" stroke-width="1px">0.012</text><text style="text-anchor: end; visibility: inherit; font-family: Roboto, sans-serif; font-size: 12px; font-weight: 200;" x="0" y="159.11111111111111" dx="0em" dy="0.3em" fill="rgb(255, 255, 255)" stroke="none" stroke-width="1px">0.014</text><text style="text-anchor: end; visibility: hidden; font-family: Roboto, sans-serif; font-size: 12px; font-weight: 200;" x="0" y="139.22222222222223" dx="0em" dy="0.3em" fill="rgb(255, 255, 255)" stroke="none" stroke-width="1px">0.016</text><text style="text-anchor: end; visibility: inherit; font-family: Roboto, sans-serif; font-size: 12px; font-weight: 200;" x="0" y="119.33333333333334" dx="0em" dy="0.3em" fill="rgb(255, 255, 255)" stroke="none" stroke-width="1px">0.018</text><text style="text-anchor: end; visibility: hidden; font-family: Roboto, sans-serif; font-size: 12px; font-weight: 200;" x="0" y="99.44444444444444" dx="0em" dy="0.3em" fill="rgb(255, 255, 255)" stroke="none" stroke-width="1px">0.02</text><text style="text-anchor: end; visibility: inherit; font-family: Roboto, sans-serif; font-size: 12px; font-weight: 200;" x="0" y="79.55555555555557" dx="0em" dy="0.3em" fill="rgb(255, 255, 255)" stroke="none" stroke-width="1px">0.022</text><text style="text-anchor: end; visibility: hidden; font-family: Roboto, sans-serif; font-size: 12px; font-weight: 200;" x="0" y="59.66666666666665" dx="0em" dy="0.3em" fill="rgb(255, 255, 255)" stroke="none" stroke-width="1px">0.024</text><text style="text-anchor: end; visibility: inherit; font-family: Roboto, sans-serif; font-size: 12px; font-weight: 200;" x="0" y="39.77777777777778" dx="0em" dy="0.3em" fill="rgb(255, 255, 255)" stroke="none" stroke-width="1px">0.026</text><text style="text-anchor: end; visibility: hidden; font-family: Roboto, sans-serif; font-size: 12px; font-weight: 200;" x="0" y="19.88888888888888" dx="0em" dy="0.3em" fill="rgb(255, 255, 255)" stroke="none" stroke-width="1px">0.028</text><text style="text-anchor: end; visibility: hidden; font-family: Roboto, sans-serif; font-size: 12px; font-weight: 200;" x="0" y="0" dx="0em" dy="0.3em" fill="rgb(255, 255, 255)" stroke="none" stroke-width="1px">0.03</text></g><line x1="60.28000354766846" y1="0" x2="60.28000354766846" y2="179" fill="rgb(0, 0, 0)" stroke="rgb(204, 204, 204)" stroke-width="1px"></line></g></g><g transform="translate(60, 0)" clip-path="url(#clip_0)"><clipPath id="clip_0"><rect width="269" height="179"></rect></clipPath><g><g><g><line x1="0" y1="0" x2="0" y2="179" fill="rgb(0, 0, 0)" stroke="rgb(189, 189, 189)" stroke-width="1px" opacity="0.25"></line><line x1="26.971999645233154" y1="0" x2="26.971999645233154" y2="179" fill="rgb(0, 0, 0)" stroke="rgb(189, 189, 189)" stroke-width="1px" opacity="0.25"></line><line x1="53.94399929046631" y1="0" x2="53.94399929046631" y2="179" fill="rgb(0, 0, 0)" stroke="rgb(189, 189, 189)" stroke-width="1px" opacity="0.25"></line><line x1="80.91599893569946" y1="0" x2="80.91599893569946" y2="179" fill="rgb(0, 0, 0)" stroke="rgb(189, 189, 189)" stroke-width="1px" opacity="0.25"></line><line x1="107.88799858093262" y1="0" x2="107.88799858093262" y2="179" fill="rgb(0, 0, 0)" stroke="rgb(189, 189, 189)" stroke-width="1px" opacity="0.25"></line><line x1="134.85999822616577" y1="0" x2="134.85999822616577" y2="179" fill="rgb(0, 0, 0)" stroke="rgb(189, 189, 189)" stroke-width="1px" opacity="0.25"></line><line x1="161.83199787139893" y1="0" x2="161.83199787139893" y2="179" fill="rgb(0, 0, 0)" stroke="rgb(189, 189, 189)" stroke-width="1px" opacity="0.25"></line><line x1="188.80399751663208" y1="0" x2="188.80399751663208" y2="179" fill="rgb(0, 0, 0)" stroke="rgb(189, 189, 189)" stroke-width="1px" opacity="0.25"></line><line x1="215.77599716186523" y1="0" x2="215.77599716186523" y2="179" fill="rgb(0, 0, 0)" stroke="rgb(189, 189, 189)" stroke-width="1px" opacity="0.25"></line><line x1="242.7479968070984" y1="0" x2="242.7479968070984" y2="179" fill="rgb(0, 0, 0)" stroke="rgb(189, 189, 189)" stroke-width="1px" opacity="0.25"></line><line x1="269.71999645233154" y1="0" x2="269.71999645233154" y2="179" fill="rgb(0, 0, 0)" stroke="rgb(189, 189, 189)" stroke-width="1px" opacity="0.25"></line></g><g><line x1="0" y1="179" x2="269.71999645233154" y2="179" fill="rgb(0, 0, 0)" stroke="rgb(189, 189, 189)" stroke-width="1px" opacity="0.25"></line><line x1="0" y1="159.11111111111111" x2="269.71999645233154" y2="159.11111111111111" fill="rgb(0, 0, 0)" stroke="rgb(189, 189, 189)" stroke-width="1px" opacity="0.25"></line><line x1="0" y1="139.22222222222223" x2="269.71999645233154" y2="139.22222222222223" fill="rgb(0, 0, 0)" stroke="rgb(189, 189, 189)" stroke-width="1px" opacity="0.25"></line><line x1="0" y1="119.33333333333334" x2="269.71999645233154" y2="119.33333333333334" fill="rgb(0, 0, 0)" stroke="rgb(189, 189, 189)" stroke-width="1px" opacity="0.25"></line><line x1="0" y1="99.44444444444444" x2="269.71999645233154" y2="99.44444444444444" fill="rgb(0, 0, 0)" stroke="rgb(189, 189, 189)" stroke-width="1px" opacity="0.25"></line><line x1="0" y1="79.55555555555557" x2="269.71999645233154" y2="79.55555555555557" fill="rgb(0, 0, 0)" stroke="rgb(189, 189, 189)" stroke-width="1px" opacity="0.25"></line><line x1="0" y1="59.66666666666665" x2="269.71999645233154" y2="59.66666666666665" fill="rgb(0, 0, 0)" stroke="rgb(189, 189, 189)" stroke-width="1px" opacity="0.25"></line><line x1="0" y1="39.77777777777778" x2="269.71999645233154" y2="39.77777777777778" fill="rgb(0, 0, 0)" stroke="rgb(189, 189, 189)" stroke-width="1px" opacity="0.25"></line><line x1="0" y1="19.88888888888888" x2="269.71999645233154" y2="19.88888888888888" fill="rgb(0, 0, 0)" stroke="rgb(189, 189, 189)" stroke-width="1px" opacity="0.25"></line><line x1="0" y1="0" x2="269.71999645233154" y2="0" fill="rgb(0, 0, 0)" stroke="rgb(189, 189, 189)" stroke-width="1px" opacity="0.25"></line></g></g></g><g><g><line x1="0" y1="298.33333333333337" x2="269.71999645233154" y2="298.33333333333337" fill="rgb(0, 0, 0)" stroke="rgb(153, 153, 153)" stroke-width="1.5px"></line></g></g><g><g><line x1="26.971999645233154" y1="0" x2="26.971999645233154" y2="179" fill="rgb(0, 0, 0)" stroke="rgb(153, 153, 153)" stroke-width="1.5px"></line></g></g><g><g><g><g><g><path style="fill: none;" stroke="rgb(0, 119, 187)" stroke-width="2px" d="M26.971999645233154,2.242527223295627L29.66919960975647,-2.109815321034886L32.36639957427978,-0.36794724048463845L35.0635995388031,18.118665268936905L37.76079950332642,37.993490670175895L40.45799946784973,56.892865585505135L43.155199432373045,72.44255467089005L45.85239939689637,89.47298699784291L48.54959936141967,98.04723981071393L51.246799325942995,106.85710469320959L53.94399929046631,110.54381342895078L56.64119925498962,114.85223569408211L59.33839921951294,116.90371512801605L62.03559918403626,118.24357775167154L64.73279914855956,123.57316473505227L67.42999911308289,129.35054269656558L70.1271990776062,127.28400097623611L72.82439904212953,125.83771809038701L75.52159900665283,127.63825373324485L78.21879897117614,129.86429628695385L80.91599893569946,127.78214356575701L83.61319890022278,131.23121315175166L86.31039886474609,134.1955517472431L89.00759882926941,134.89820210901127L91.70479879379273,134.75957245216864L94.40199875831604,139.03083056906544L97.09919872283935,140.74890278788945L99.79639868736267,138.72879119148644L102.49359865188599,141.28784776171722L105.19079861640931,140.3924740056733L107.88799858093262,141.62960998106658L110.58519854545592,144.02950487726102L113.28239850997925,143.09501894636898L115.97959847450257,142.99880945566852L118.67679843902587,146.18694556435398L121.3739984035492,148.16915126724075L124.07119836807252,148.97094447910104L126.76839833259582,145.73421186032976L129.46559829711913,148.31198844302332L132.16279826164245,149.52096950963994L134.85999822616577,150.71566726121614L137.5571981906891,148.23775126959166L140.2543981552124,146.72345431259427L142.95159811973573,149.34063479813273L145.64879808425906,149.52027545679888L148.34599804878235,151.4644716726188L151.04319801330567,154.28582794506642L153.74039797782896,156.09856683324782L156.43759794235228,155.87044572485448L159.1347979068756,155.79100908893724L161.83199787139893,155.8292270110883L164.52919783592225,157.49786077795608L167.22639780044557,158.2997153449229L169.92359776496886,158.75859681506037L172.62079772949218,156.83092575348078L175.3179976940155,158.57472033529874L178.01519765853882,158.11638724708848L180.71239762306215,159.38617355600917L183.40959758758547,160.54631144986118L186.10679755210876,162.19712739564986L188.80399751663208,160.83837816178934L191.50119748115537,160.45594748046082L194.1983974456787,160.39510738314837L196.89559741020201,159.57758594844395L199.59279737472534,158.6462819418264L202.28999733924866,160.1603793133866L204.98719730377198,162.27035990036953L207.6843972682953,162.83496483405224L210.38159723281862,164.72771987279796L213.07879719734194,165.11662301645995L215.77599716186523,165.76178241689135L218.47319712638856,162.7893149051548L221.17039709091185,164.52246123215443L223.86759705543517,159.84270002308685L226.5647970199585,164.99496421732425L229.2619969844818,165.4953480445089L231.95919694900513,166.14499566965418L234.65639691352845,167.33739199629628L237.35359687805175,167.74229588460315L240.05079684257507,165.20702222149407" fill="none"></path></g><g><path style="fill: none;" stroke="rgb(255, 112, 67)" stroke-width="2px" d="M26.971999645233154,2.227153157194449Z" fill="none"></path></g></g></g></g><g opacity="0.2"><g><g><g><path style="fill: none;" stroke="rgb(0, 119, 187)" stroke-width="2px" d="M26.971999645233154,2.242527223295627L29.66919960975647,-4.7212208476331545L32.36639957427978,1.3042461168434731L35.0635995388031,39.85892158001661L37.76079950332642,63.942062714033646L40.45799946784973,83.03750486837492L43.155199432373045,94.6788588580158L45.85239939689637,114.30352082269059L48.54959936141967,110.6925972468323L51.246799325942995,119.93872730682293L53.94399929046631,116.04043835567103L56.64119925498962,121.29142284807232L59.33839921951294,119.97423584262529L62.03559918403626,120.25074675679207L64.73279914855956,131.56128048068948L67.42999911308289,138.01253498428397L70.1271990776062,124.1850628869401L72.82439904212953,123.66866097268131L75.52159900665283,130.33878290404877L78.21879897117614,133.2031566484107L80.91599893569946,124.6590286741654L83.61319890022278,136.40470403763982L86.31039886474609,138.64200111478567L89.00759882926941,135.95216932810015L91.70479879379273,134.55162895222503L94.40199875831604,145.43769952944584L97.09919872283935,143.32600672004952L99.79639868736267,135.69862689822912L102.49359865188599,145.12643025981055L105.19079861640931,139.04941386646695L107.88799858093262,143.4853135339088L110.58519854545592,147.6293467440539L113.28239850997925,141.6932901615898L115.97959847450257,142.85449522650904L118.67679843902587,150.9691495903664L121.3739984035492,151.1424597704576L124.07119836807252,150.17363428448635L126.76839833259582,140.87911296221944L129.46559829711913,152.17865330270595L132.16279826164245,151.33444110552472L134.85999822616577,152.50771388618483L137.5571981906891,144.52087728513612L140.2543981552124,144.4520088781913L142.95159811973573,153.26640552530688L145.64879808425906,149.78973644475144L148.34599804878235,154.38076599604554L151.04319801330567,158.5178623534739L153.74039797782896,158.8176751654181L156.43759794235228,155.52826406227217L159.1347979068756,155.67185413506297L161.83199787139893,155.8865538943145L164.52919783592225,160.00081142824558L167.22639780044557,159.50249719536967L169.92359776496886,159.44691902026534L172.62079772949218,153.93941916111442L175.3179976940155,161.190412208024L178.01519765853882,157.42888761477337L180.71239762306215,161.29085301938983L183.40959758758547,162.28651829063892L186.10679755210876,164.67335131433276L188.80399751663208,158.80025431099864L191.50119748115537,159.88230145846802L194.1983974456787,160.3038472371797L196.89559741020201,158.35130379638738L199.59279737472534,157.24932593190007L202.28999733924866,162.431525370727L204.98719730377198,165.4353307808439L207.6843972682953,163.68187223457628L210.38159723281862,167.5668524309165L213.07879719734194,165.69997773195308L215.77599716186523,166.72952151753836L218.47319712638856,158.33061363755002L221.17039709091185,167.12218072265387L223.86759705543517,152.82305820948548L226.5647970199585,172.72336050868034L229.2619969844818,166.2459237852858L231.95919694900513,167.11946710737215L234.65639691352845,169.12598648625942L237.35359687805175,168.34965171706347L240.05079684257507,161.40411172683042" fill="none"></path></g><g><path style="fill: none;" stroke="rgb(255, 112, 67)" stroke-width="2px" d="M26.971999645233154,2.227153157194449Z" fill="none"></path></g></g></g></g></g></g><g transform="translate(60, 179)" clip-path="url(#clip_1)"><clipPath id="clip_1"><rect width="269" height="21"></rect></clipPath><g><g><line x1="0" y1="0" x2="0" y2="5" style="visibility: inherit;" fill="rgb(0, 0, 0)" stroke="rgb(204, 204, 204)" stroke-width="1px"></line><line x1="26.971999645233154" y1="0" x2="26.971999645233154" y2="5" style="visibility: inherit;" fill="rgb(0, 0, 0)" stroke="rgb(204, 204, 204)" stroke-width="1px"></line><line x1="53.94399929046631" y1="0" x2="53.94399929046631" y2="5" style="visibility: inherit;" fill="rgb(0, 0, 0)" stroke="rgb(204, 204, 204)" stroke-width="1px"></line><line x1="80.91599893569946" y1="0" x2="80.91599893569946" y2="5" style="visibility: inherit;" fill="rgb(0, 0, 0)" stroke="rgb(204, 204, 204)" stroke-width="1px"></line><line x1="107.88799858093262" y1="0" x2="107.88799858093262" y2="5" style="visibility: inherit;" fill="rgb(0, 0, 0)" stroke="rgb(204, 204, 204)" stroke-width="1px"></line><line x1="134.85999822616577" y1="0" x2="134.85999822616577" y2="5" style="visibility: inherit;" fill="rgb(0, 0, 0)" stroke="rgb(204, 204, 204)" stroke-width="1px"></line><line x1="161.83199787139893" y1="0" x2="161.83199787139893" y2="5" style="visibility: inherit;" fill="rgb(0, 0, 0)" stroke="rgb(204, 204, 204)" stroke-width="1px"></line><line x1="188.80399751663208" y1="0" x2="188.80399751663208" y2="5" style="visibility: inherit;" fill="rgb(0, 0, 0)" stroke="rgb(204, 204, 204)" stroke-width="1px"></line><line x1="215.77599716186523" y1="0" x2="215.77599716186523" y2="5" style="visibility: inherit;" fill="rgb(0, 0, 0)" stroke="rgb(204, 204, 204)" stroke-width="1px"></line><line x1="242.7479968070984" y1="0" x2="242.7479968070984" y2="5" style="visibility: inherit;" fill="rgb(0, 0, 0)" stroke="rgb(204, 204, 204)" stroke-width="1px"></line><line x1="269.71999645233154" y1="0" x2="269.71999645233154" y2="5" style="visibility: inherit;" fill="rgb(0, 0, 0)" stroke="rgb(204, 204, 204)" stroke-width="1px"></line></g><g transform="translate(0, 8)"><text style="text-anchor: middle; visibility: hidden; font-family: Roboto, sans-serif; font-size: 12px; font-weight: 200;" x="0" y="0" dx="0em" dy="0.95em" fill="rgb(255, 255, 255)" stroke="none" stroke-width="1px">-10</text><text style="text-anchor: middle; visibility: hidden; font-family: Roboto, sans-serif; font-size: 12px; font-weight: 200;" x="26.971999645233154" y="0" dx="0em" dy="0.95em" fill="rgb(255, 255, 255)" stroke="none" stroke-width="1px">0</text><text style="text-anchor: middle; visibility: hidden; font-family: Roboto, sans-serif; font-size: 12px; font-weight: 200;" x="53.94399929046631" y="0" dx="0em" dy="0.95em" fill="rgb(255, 255, 255)" stroke="none" stroke-width="1px">10</text><text style="text-anchor: middle; visibility: hidden; font-family: Roboto, sans-serif; font-size: 12px; font-weight: 200;" x="80.91599893569946" y="0" dx="0em" dy="0.95em" fill="rgb(255, 255, 255)" stroke="none" stroke-width="1px">20</text><text style="text-anchor: middle; visibility: hidden; font-family: Roboto, sans-serif; font-size: 12px; font-weight: 200;" x="107.88799858093262" y="0" dx="0em" dy="0.95em" fill="rgb(255, 255, 255)" stroke="none" stroke-width="1px">30</text><text style="text-anchor: middle; visibility: hidden; font-family: Roboto, sans-serif; font-size: 12px; font-weight: 200;" x="134.85999822616577" y="0" dx="0em" dy="0.95em" fill="rgb(255, 255, 255)" stroke="none" stroke-width="1px">40</text><text style="text-anchor: middle; visibility: hidden; font-family: Roboto, sans-serif; font-size: 12px; font-weight: 200;" x="161.83199787139893" y="0" dx="0em" dy="0.95em" fill="rgb(255, 255, 255)" stroke="none" stroke-width="1px">50</text><text style="text-anchor: middle; visibility: hidden; font-family: Roboto, sans-serif; font-size: 12px; font-weight: 200;" x="188.80399751663208" y="0" dx="0em" dy="0.95em" fill="rgb(255, 255, 255)" stroke="none" stroke-width="1px">60</text><text style="text-anchor: middle; visibility: hidden; font-family: Roboto, sans-serif; font-size: 12px; font-weight: 200;" x="215.77599716186523" y="0" dx="0em" dy="0.95em" fill="rgb(255, 255, 255)" stroke="none" stroke-width="1px">70</text><text style="text-anchor: middle; visibility: hidden; font-family: Roboto, sans-serif; font-size: 12px; font-weight: 200;" x="242.7479968070984" y="0" dx="0em" dy="0.95em" fill="rgb(255, 255, 255)" stroke="none" stroke-width="1px">80</text><text style="text-anchor: middle; visibility: hidden; font-family: Roboto, sans-serif; font-size: 12px; font-weight: 200;" x="269.71999645233154" y="0" dx="0em" dy="0.95em" fill="rgb(255, 255, 255)" stroke="none" stroke-width="1px">90</text></g><line x1="0" y1="0" x2="269.71999645233154" y2="0" fill="rgb(0, 0, 0)" stroke="rgb(204, 204, 204)" stroke-width="1px"></line></g></g></g></g></svg>