<svg viewBox="0 0 330 200" xmlns="http://www.w3.org/2000/svg"><g><g><g><g><g><line x1="50.224002838134766" y1="179" x2="45.224002838134766" y2="179" style="visibility: inherit;" fill="rgb(0, 0, 0)" stroke="rgb(204, 204, 204)" stroke-width="1px"></line><line x1="50.224002838134766" y1="161.1" x2="45.224002838134766" y2="161.1" style="visibility: inherit;" fill="rgb(0, 0, 0)" stroke="rgb(204, 204, 204)" stroke-width="1px"></line><line x1="50.224002838134766" y1="143.20000000000002" x2="45.224002838134766" y2="143.20000000000002" style="visibility: inherit;" fill="rgb(0, 0, 0)" stroke="rgb(204, 204, 204)" stroke-width="1px"></line><line x1="50.224002838134766" y1="125.3" x2="45.224002838134766" y2="125.3" style="visibility: inherit;" fill="rgb(0, 0, 0)" stroke="rgb(204, 204, 204)" stroke-width="1px"></line><line x1="50.224002838134766" y1="107.39999999999999" x2="45.224002838134766" y2="107.39999999999999" style="visibility: inherit;" fill="rgb(0, 0, 0)" stroke="rgb(204, 204, 204)" stroke-width="1px"></line><line x1="50.224002838134766" y1="89.5" x2="45.224002838134766" y2="89.5" style="visibility: inherit;" fill="rgb(0, 0, 0)" stroke="rgb(204, 204, 204)" stroke-width="1px"></line><line x1="50.224002838134766" y1="71.60000000000001" x2="45.224002838134766" y2="71.60000000000001" style="visibility: inherit;" fill="rgb(0, 0, 0)" stroke="rgb(204, 204, 204)" stroke-width="1px"></line><line x1="50.224002838134766" y1="53.70000000000001" x2="45.224002838134766" y2="53.70000000000001" style="visibility: inherit;" fill="rgb(0, 0, 0)" stroke="rgb(204, 204, 204)" stroke-width="1px"></line><line x1="50.224002838134766" y1="35.79999999999999" x2="45.224002838134766" y2="35.79999999999999" style="visibility: inherit;" fill="rgb(0, 0, 0)" stroke="rgb(204, 204, 204)" stroke-width="1px"></line><line x1="50.224002838134766" y1="17.899999999999995" x2="45.224002838134766" y2="17.899999999999995" style="visibility: inherit;" fill="rgb(0, 0, 0)" stroke="rgb(204, 204, 204)" stroke-width="1px"></line><line x1="50.224002838134766" y1="0" x2="45.224002838134766" y2="0" style="visibility: inherit;" fill="rgb(0, 0, 0)" stroke="rgb(204, 204, 204)" stroke-width="1px"></line></g><g transform="translate(40.224002838134766, 0)"><text style="text-anchor: end; visibility: hidden; font-family: Roboto, sans-serif; font-size: 12px; font-weight: 200;" x="0" y="179" dx="0em" dy="0.3em" fill="rgb(255, 255, 255)" stroke="none" stroke-width="1px">-1</text><text style="text-anchor: end; visibility: inherit; font-family: Roboto, sans-serif; font-size: 12px; font-weight: 200;" x="0" y="161.1" dx="0em" dy="0.3em" fill="rgb(255, 255, 255)" stroke="none" stroke-width="1px">-0.8</text><text style="text-anchor: end; visibility: hidden; font-family: Roboto, sans-serif; font-size: 12px; font-weight: 200;" x="0" y="143.20000000000002" dx="0em" dy="0.3em" fill="rgb(255, 255, 255)" stroke="none" stroke-width="1px">-0.6</text><text style="text-anchor: end; visibility: inherit; font-family: Roboto, sans-serif; font-size: 12px; font-weight: 200;" x="0" y="125.3" dx="0em" dy="0.3em" fill="rgb(255, 255, 255)" stroke="none" stroke-width="1px">-0.4</text><text style="text-anchor: end; visibility: hidden; font-family: Roboto, sans-serif; font-size: 12px; font-weight: 200;" x="0" y="107.39999999999999" dx="0em" dy="0.3em" fill="rgb(255, 255, 255)" stroke="none" stroke-width="1px">-0.2</text><text style="text-anchor: end; visibility: inherit; font-family: Roboto, sans-serif; font-size: 12px; font-weight: 200;" x="0" y="89.5" dx="0em" dy="0.3em" fill="rgb(255, 255, 255)" stroke="none" stroke-width="1px">0</text><text style="text-anchor: end; visibility: hidden; font-family: Roboto, sans-serif; font-size: 12px; font-weight: 200;" x="0" y="71.60000000000001" dx="0em" dy="0.3em" fill="rgb(255, 255, 255)" stroke="none" stroke-width="1px">0.2</text><text style="text-anchor: end; visibility: inherit; font-family: Roboto, sans-serif; font-size: 12px; font-weight: 200;" x="0" y="53.70000000000001" dx="0em" dy="0.3em" fill="rgb(255, 255, 255)" stroke="none" stroke-width="1px">0.4</text><text style="text-anchor: end; visibility: hidden; font-family: Roboto, sans-serif; font-size: 12px; font-weight: 200;" x="0" y="35.79999999999999" dx="0em" dy="0.3em" fill="rgb(255, 255, 255)" stroke="none" stroke-width="1px">0.6</text><text style="text-anchor: end; visibility: inherit; font-family: Roboto, sans-serif; font-size: 12px; font-weight: 200;" x="0" y="17.899999999999995" dx="0em" dy="0.3em" fill="rgb(255, 255, 255)" stroke="none" stroke-width="1px">0.8</text><text style="text-anchor: end; visibility: hidden; font-family: Roboto, sans-serif; font-size: 12px; font-weight: 200;" x="0" y="0" dx="0em" dy="0.3em" fill="rgb(255, 255, 255)" stroke="none" stroke-width="1px">1</text></g><line x1="50.224002838134766" y1="0" x2="50.224002838134766" y2="179" fill="rgb(0, 0, 0)" stroke="rgb(204, 204, 204)" stroke-width="1px"></line></g></g><g transform="translate(50, 0)" clip-path="url(#clip_0)"><clipPath id="clip_0"><rect width="279" height="179"></rect></clipPath><g><g><g><line x1="0" y1="0" x2="0" y2="179" fill="rgb(0, 0, 0)" stroke="rgb(189, 189, 189)" stroke-width="1px" opacity="0.25"></line><line x1="27.977599716186525" y1="0" x2="27.977599716186525" y2="179" fill="rgb(0, 0, 0)" stroke="rgb(189, 189, 189)" stroke-width="1px" opacity="0.25"></line><line x1="55.95519943237305" y1="0" x2="55.95519943237305" y2="179" fill="rgb(0, 0, 0)" stroke="rgb(189, 189, 189)" stroke-width="1px" opacity="0.25"></line><line x1="83.93279914855957" y1="0" x2="83.93279914855957" y2="179" fill="rgb(0, 0, 0)" stroke="rgb(189, 189, 189)" stroke-width="1px" opacity="0.25"></line><line x1="111.9103988647461" y1="0" x2="111.9103988647461" y2="179" fill="rgb(0, 0, 0)" stroke="rgb(189, 189, 189)" stroke-width="1px" opacity="0.25"></line><line x1="139.88799858093262" y1="0" x2="139.88799858093262" y2="179" fill="rgb(0, 0, 0)" stroke="rgb(189, 189, 189)" stroke-width="1px" opacity="0.25"></line><line x1="167.86559829711913" y1="0" x2="167.86559829711913" y2="179" fill="rgb(0, 0, 0)" stroke="rgb(189, 189, 189)" stroke-width="1px" opacity="0.25"></line><line x1="195.84319801330565" y1="0" x2="195.84319801330565" y2="179" fill="rgb(0, 0, 0)" stroke="rgb(189, 189, 189)" stroke-width="1px" opacity="0.25"></line><line x1="223.8207977294922" y1="0" x2="223.8207977294922" y2="179" fill="rgb(0, 0, 0)" stroke="rgb(189, 189, 189)" stroke-width="1px" opacity="0.25"></line><line x1="251.79839744567872" y1="0" x2="251.79839744567872" y2="179" fill="rgb(0, 0, 0)" stroke="rgb(189, 189, 189)" stroke-width="1px" opacity="0.25"></line><line x1="279.77599716186523" y1="0" x2="279.77599716186523" y2="179" fill="rgb(0, 0, 0)" stroke="rgb(189, 189, 189)" stroke-width="1px" opacity="0.25"></line></g><g><line x1="0" y1="179" x2="279.77599716186523" y2="179" fill="rgb(0, 0, 0)" stroke="rgb(189, 189, 189)" stroke-width="1px" opacity="0.25"></line><line x1="0" y1="161.1" x2="279.77599716186523" y2="161.1" fill="rgb(0, 0, 0)" stroke="rgb(189, 189, 189)" stroke-width="1px" opacity="0.25"></line><line x1="0" y1="143.20000000000002" x2="279.77599716186523" y2="143.20000000000002" fill="rgb(0, 0, 0)" stroke="rgb(189, 189, 189)" stroke-width="1px" opacity="0.25"></line><line x1="0" y1="125.3" x2="279.77599716186523" y2="125.3" fill="rgb(0, 0, 0)" stroke="rgb(189, 189, 189)" stroke-width="1px" opacity="0.25"></line><line x1="0" y1="107.39999999999999" x2="279.77599716186523" y2="107.39999999999999" fill="rgb(0, 0, 0)" stroke="rgb(189, 189, 189)" stroke-width="1px" opacity="0.25"></line><line x1="0" y1="89.5" x2="279.77599716186523" y2="89.5" fill="rgb(0, 0, 0)" stroke="rgb(189, 189, 189)" stroke-width="1px" opacity="0.25"></line><line x1="0" y1="71.60000000000001" x2="279.77599716186523" y2="71.60000000000001" fill="rgb(0, 0, 0)" stroke="rgb(189, 189, 189)" stroke-width="1px" opacity="0.25"></line><line x1="0" y1="53.70000000000001" x2="279.77599716186523" y2="53.70000000000001" fill="rgb(0, 0, 0)" stroke="rgb(189, 189, 189)" stroke-width="1px" opacity="0.25"></line><line x1="0" y1="35.79999999999999" x2="279.77599716186523" y2="35.79999999999999" fill="rgb(0, 0, 0)" stroke="rgb(189, 189, 189)" stroke-width="1px" opacity="0.25"></line><line x1="0" y1="17.899999999999995" x2="279.77599716186523" y2="17.899999999999995" fill="rgb(0, 0, 0)" stroke="rgb(189, 189, 189)" stroke-width="1px" opacity="0.25"></line><line x1="0" y1="0" x2="279.77599716186523" y2="0" fill="rgb(0, 0, 0)" stroke="rgb(189, 189, 189)" stroke-width="1px" opacity="0.25"></line></g></g></g><g><g><line x1="0" y1="89.5" x2="279.77599716186523" y2="89.5" fill="rgb(0, 0, 0)" stroke="rgb(153, 153, 153)" stroke-width="1.5px"></line></g></g><g><g><line x1="27.977599716186525" y1="0" x2="27.977599716186525" y2="179" fill="rgb(0, 0, 0)" stroke="rgb(153, 153, 153)" stroke-width="1.5px"></line></g></g><g><g><g><g><g><path style="fill: none;" stroke="rgb(0, 119, 187)" stroke-width="2px" d="M27.977599716186525,89.5L30.775359687805175,89.5L33.573119659423824,89.5L36.370879631042484,89.5L39.16863960266114,89.5L41.966399574279784,89.5L44.76415954589844,89.5L47.56191951751709,89.5L50.35967948913574,89.5L53.1574394607544,89.5L55.95519943237305,89.5L58.752959403991696,89.5L61.55071937561035,89.5L64.348479347229,89.5L67.14623931884765,89.5L69.94399929046631,89.5L72.74175926208497,89.5L75.53951923370361,89.5L78.33727920532228,89.5L81.13503917694091,89.5L83.93279914855957,89.5L86.73055912017823,89.5L89.52831909179687,89.5L92.32607906341553,89.5L95.12383903503418,89.5L97.92159900665283,89.5L100.71935897827149,89.5L103.51711894989013,89.5L106.3148789215088,89.5L109.11263889312744,89.5L111.9103988647461,89.5L114.70815883636475,89.5L117.50591880798339,89.5L120.30367877960205,89.5L123.1014387512207,89.5L125.89919872283936,89.5L128.696958694458,89.5L131.49471866607666,89.5L134.2924786376953,89.5L137.09023860931396,89.5L139.88799858093262,89.5L142.68575855255128,89.5L145.48351852416994,89.5L148.28127849578857,89.5L151.07903846740723,89.5L153.8767984390259,89.5L156.67455841064455,89.5L159.47231838226318,89.5L162.27007835388181,89.5L165.06783832550047,89.5L167.86559829711913,89.5L170.6633582687378,89.5L173.46111824035646,89.5L176.2588782119751,89.5L179.05663818359375,89.5L181.8543981552124,89.5L184.65215812683107,89.5L187.44991809844973,89.5L190.24767807006836,89.5L193.045438041687,89.5L195.84319801330565,89.5L198.6409579849243,89.5L201.43871795654297,89.5L204.2364779281616,89.5L207.03423789978027,89.5L209.83199787139893,89.5L212.6297578430176,89.5L215.42751781463625,89.5L218.22527778625488,89.5L221.02303775787354,89.5L223.8207977294922,89.5L226.61855770111086,89.5L229.4163176727295,89.5L232.21407764434812,89.5L235.01183761596678,89.5L237.80959758758544,89.5L240.6073575592041,89.5L243.40511753082276,89.5L246.2028775024414,89.5L249.00063747406006,89.5" fill="none"></path></g><g><path style="fill: none;" stroke="rgb(255, 112, 67)" stroke-width="2px" d="M27.977599716186525,89.5Z" fill="none"></path></g></g></g></g><g opacity="0.2"><g><g><g><path style="fill: none;" stroke="rgb(0, 119, 187)" stroke-width="2px" d="M27.977599716186525,89.5L30.775359687805175,89.5L33.573119659423824,89.5L36.370879631042484,89.5L39.16863960266114,89.5L41.966399574279784,89.5L44.76415954589844,89.5L47.56191951751709,89.5L50.35967948913574,89.5L53.1574394607544,89.5L55.95519943237305,89.5L58.752959403991696,89.5L61.55071937561035,89.5L64.348479347229,89.5L67.14623931884765,89.5L69.94399929046631,89.5L72.74175926208497,89.5L75.53951923370361,89.5L78.33727920532228,89.5L81.13503917694091,89.5L83.93279914855957,89.5L86.73055912017823,89.5L89.52831909179687,89.5L92.32607906341553,89.5L95.12383903503418,89.5L97.92159900665283,89.5L100.71935897827149,89.5L103.51711894989013,89.5L106.3148789215088,89.5L109.11263889312744,89.5L111.9103988647461,89.5L114.70815883636475,89.5L117.50591880798339,89.5L120.30367877960205,89.5L123.1014387512207,89.5L125.89919872283936,89.5L128.696958694458,89.5L131.49471866607666,89.5L134.2924786376953,89.5L137.09023860931396,89.5L139.88799858093262,89.5L142.68575855255128,89.5L145.48351852416994,89.5L148.28127849578857,89.5L151.07903846740723,89.5L153.8767984390259,89.5L156.67455841064455,89.5L159.47231838226318,89.5L162.27007835388181,89.5L165.06783832550047,89.5L167.86559829711913,89.5L170.6633582687378,89.5L173.46111824035646,89.5L176.2588782119751,89.5L179.05663818359375,89.5L181.8543981552124,89.5L184.65215812683107,89.5L187.44991809844973,89.5L190.24767807006836,89.5L193.045438041687,89.5L195.84319801330565,89.5L198.6409579849243,89.5L201.43871795654297,89.5L204.2364779281616,89.5L207.03423789978027,89.5L209.83199787139893,89.5L212.6297578430176,89.5L215.42751781463625,89.5L218.22527778625488,89.5L221.02303775787354,89.5L223.8207977294922,89.5L226.61855770111086,89.5L229.4163176727295,89.5L232.21407764434812,89.5L235.01183761596678,89.5L237.80959758758544,89.5L240.6073575592041,89.5L243.40511753082276,89.5L246.2028775024414,89.5L249.00063747406006,89.5" fill="none"></path></g><g><path style="fill: none;" stroke="rgb(255, 112, 67)" stroke-width="2px" d="M27.977599716186525,89.5Z" fill="none"></path></g></g></g></g></g></g><g transform="translate(50, 179)" clip-path="url(#clip_1)"><clipPath id="clip_1"><rect width="279" height="21"></rect></clipPath><g><g><line x1="0" y1="0" x2="0" y2="5" style="visibility: inherit;" fill="rgb(0, 0, 0)" stroke="rgb(204, 204, 204)" stroke-width="1px"></line><line x1="27.977599716186525" y1="0" x2="27.977599716186525" y2="5" style="visibility: inherit;" fill="rgb(0, 0, 0)" stroke="rgb(204, 204, 204)" stroke-width="1px"></line><line x1="55.95519943237305" y1="0" x2="55.95519943237305" y2="5" style="visibility: inherit;" fill="rgb(0, 0, 0)" stroke="rgb(204, 204, 204)" stroke-width="1px"></line><line x1="83.93279914855957" y1="0" x2="83.93279914855957" y2="5" style="visibility: inherit;" fill="rgb(0, 0, 0)" stroke="rgb(204, 204, 204)" stroke-width="1px"></line><line x1="111.9103988647461" y1="0" x2="111.9103988647461" y2="5" style="visibility: inherit;" fill="rgb(0, 0, 0)" stroke="rgb(204, 204, 204)" stroke-width="1px"></line><line x1="139.88799858093262" y1="0" x2="139.88799858093262" y2="5" style="visibility: inherit;" fill="rgb(0, 0, 0)" stroke="rgb(204, 204, 204)" stroke-width="1px"></line><line x1="167.86559829711913" y1="0" x2="167.86559829711913" y2="5" style="visibility: inherit;" fill="rgb(0, 0, 0)" stroke="rgb(204, 204, 204)" stroke-width="1px"></line><line x1="195.84319801330565" y1="0" x2="195.84319801330565" y2="5" style="visibility: inherit;" fill="rgb(0, 0, 0)" stroke="rgb(204, 204, 204)" stroke-width="1px"></line><line x1="223.8207977294922" y1="0" x2="223.8207977294922" y2="5" style="visibility: inherit;" fill="rgb(0, 0, 0)" stroke="rgb(204, 204, 204)" stroke-width="1px"></line><line x1="251.79839744567872" y1="0" x2="251.79839744567872" y2="5" style="visibility: inherit;" fill="rgb(0, 0, 0)" stroke="rgb(204, 204, 204)" stroke-width="1px"></line><line x1="279.77599716186523" y1="0" x2="279.77599716186523" y2="5" style="visibility: inherit;" fill="rgb(0, 0, 0)" stroke="rgb(204, 204, 204)" stroke-width="1px"></line></g><g transform="translate(0, 8)"><text style="text-anchor: middle; visibility: hidden; font-family: Roboto, sans-serif; font-size: 12px; font-weight: 200;" x="0" y="0" dx="0em" dy="0.95em" fill="rgb(255, 255, 255)" stroke="none" stroke-width="1px">-10</text><text style="text-anchor: middle; visibility: hidden; font-family: Roboto, sans-serif; font-size: 12px; font-weight: 200;" x="27.977599716186525" y="0" dx="0em" dy="0.95em" fill="rgb(255, 255, 255)" stroke="none" stroke-width="1px">0</text><text style="text-anchor: middle; visibility: hidden; font-family: Roboto, sans-serif; font-size: 12px; font-weight: 200;" x="55.95519943237305" y="0" dx="0em" dy="0.95em" fill="rgb(255, 255, 255)" stroke="none" stroke-width="1px">10</text><text style="text-anchor: middle; visibility: hidden; font-family: Roboto, sans-serif; font-size: 12px; font-weight: 200;" x="83.93279914855957" y="0" dx="0em" dy="0.95em" fill="rgb(255, 255, 255)" stroke="none" stroke-width="1px">20</text><text style="text-anchor: middle; visibility: hidden; font-family: Roboto, sans-serif; font-size: 12px; font-weight: 200;" x="111.9103988647461" y="0" dx="0em" dy="0.95em" fill="rgb(255, 255, 255)" stroke="none" stroke-width="1px">30</text><text style="text-anchor: middle; visibility: hidden; font-family: Roboto, sans-serif; font-size: 12px; font-weight: 200;" x="139.88799858093262" y="0" dx="0em" dy="0.95em" fill="rgb(255, 255, 255)" stroke="none" stroke-width="1px">40</text><text style="text-anchor: middle; visibility: hidden; font-family: Roboto, sans-serif; font-size: 12px; font-weight: 200;" x="167.86559829711913" y="0" dx="0em" dy="0.95em" fill="rgb(255, 255, 255)" stroke="none" stroke-width="1px">50</text><text style="text-anchor: middle; visibility: hidden; font-family: Roboto, sans-serif; font-size: 12px; font-weight: 200;" x="195.84319801330565" y="0" dx="0em" dy="0.95em" fill="rgb(255, 255, 255)" stroke="none" stroke-width="1px">60</text><text style="text-anchor: middle; visibility: hidden; font-family: Roboto, sans-serif; font-size: 12px; font-weight: 200;" x="223.8207977294922" y="0" dx="0em" dy="0.95em" fill="rgb(255, 255, 255)" stroke="none" stroke-width="1px">70</text><text style="text-anchor: middle; visibility: hidden; font-family: Roboto, sans-serif; font-size: 12px; font-weight: 200;" x="251.79839744567872" y="0" dx="0em" dy="0.95em" fill="rgb(255, 255, 255)" stroke="none" stroke-width="1px">80</text><text style="text-anchor: middle; visibility: hidden; font-family: Roboto, sans-serif; font-size: 12px; font-weight: 200;" x="279.77599716186523" y="0" dx="0em" dy="0.95em" fill="rgb(255, 255, 255)" stroke="none" stroke-width="1px">90</text></g><line x1="0" y1="0" x2="279.77599716186523" y2="0" fill="rgb(0, 0, 0)" stroke="rgb(204, 204, 204)" stroke-width="1px"></line></g></g></g></g></svg>